{"title":"[ShepardTDS] K-Project Dual Audio [1080p 8-bit x265 HEVC] 1-13 C","uid":13219219,"size":5890397531,"categoryP":"video","categoryS":"tv_shows","magnet":"?xt=urn:btih:f213c13ed8ee463230549323f621777991b7029c&amp;dn=%5BShepardTDS%5D+K-Project+Dual+Audio+%5B1080p+8-bit+x265+HEVC%5D+1-13+C&amp;tr=udp%3A%2F%2Ftracker.leechers-paradise.org%3A6969&amp;tr=udp%3A%2F%2Fzer0day.ch%3A1337&amp;tr=udp%3A%2F%2Fopen.demonii.com%3A1337&amp;tr=udp%3A%2F%2Ftracker.coppersurfer.tk%3A6969&amp;tr=udp%3A%2F%2Fexodus.desync.com%3A6969","seeders":0,"leechers":1,"uploader":"ShepardTDS","files":16,"time":1452735820,"description":"http://extraimago.com/images/2015/11/24/k-dvd-complete-series-hyb.jpg\r\n\r\nConstant Quality encoding.\r\nVariable Bit rates\r\nED and OP included\r\nBlu-Ray Source\r\n \nhttp://extraimago.com/images/2016/01/14/sample1.jpg\r\n \nhttp://extraimago.com/images/2016/01/14/sample2.jpg\r\n\r\nGeneral\r\n\r\nFormat : Matroska\r\nFile size : 332 MiB-666 MiB\r\nDuration : 23mn 58s\r\nOverall bit rate : 1,936 Kbps-3,516 Kbps\r\nEncoded date : UTC 2016-01-01 02:03:56\r\nWriting application : mkvmerge v8.5.2 ('Crosses') 32bit\r\nWriting library : libebml v1.3.3 + libmatroska v1.4.4\r\n\r\nVideo\r\nID : 1\r\nFormat : V_MPEGH/ISO/HEVC\r\nCodec ID : V_MPEGH/ISO/HEVC\r\nDuration : 23mn 58s\r\nBit rate : 1,513 Kbps-3,062 Kbps\r\nWidth : 1 920 pixels\r\nHeight : 1 080 pixels\r\nDisplay aspect ratio : 16:9\r\nFrame rate : 23.976 fps\r\nBits/(Pixel*Frame) : 0.030\r\nStream size : 259 MiB (78%)\r\n\r\nAudio #1\r\nID : 2\r\nFormat : AC-3\r\nFormat/Info : Audio Coding 3\r\nMode extension : CM (complete main)\r\nCodec ID : A_AC3\r\nDuration : 23mn 58s\r\nBit rate mode : Constant\r\nBit rate : 192 Kbps\r\nChannel(s) : 2 channels\r\nChannel positions : Front: L R\r\nSampling rate : 48.0 KHz\r\nBit depth : 16 bits\r\nCompression mode : Lossy\r\nStream size : 32.9 MiB (10%)\r\nLanguage : English\r\n\r\nAudio #2\r\nID : 3\r\nFormat : AC-3\r\nFormat/Info : Audio Coding 3\r\nMode extension : CM (complete main)\r\nCodec ID : A_AC3\r\nDuration : 23mn 58s\r\nBit rate mode : Constant\r\nBit rate : 192 Kbps\r\nChannel(s) : 2 channels\r\nChannel positions : Front: L R\r\nSampling rate : 48.0 KHz\r\nBit depth : 16 bits\r\nCompression mode : Lossy\r\nStream size : 32.9 MiB (10%)\r\nLanguage : Japanese\r\n\r\nText\r\nID : 4\r\nFormat : ASS\r\nCodec ID : S_TEXT/ASS\r\nCodec ID/Info : Advanced Sub Station Alpha\r\nCompression mode : Lossless\r\nTitle : English Subtitles\r\nLanguage : English","torrent":{"xt":"urn:btih:f213c13ed8ee463230549323f621777991b7029c","amp;dn":"%5BShepardTDS%5D+K-Project+Dual+Audio+%5B1080p+8-bit+x265+HEVC%5D+1-13+C","amp;tr":["udp%3A%2F%2Ftracker.leechers-paradise.org%3A6969","udp%3A%2F%2Fzer0day.ch%3A1337","udp%3A%2F%2Fopen.demonii.com%3A1337","udp%3A%2F%2Ftracker.coppersurfer.tk%3A6969","udp%3A%2F%2Fexodus.desync.com%3A6969"],"infoHash":"f213c13ed8ee463230549323f621777991b7029c","infoHashBuffer":{"type":"Buffer","data":[242,19,193,62,216,238,70,50,48,84,147,35,246,33,119,121,145,183,2,156]},"announce":[],"urlList":[]}}